<svg xmlns="http://www.w3.org/2000/svg" width="15.74" height="14.273" viewBox="248.13 248.864 15.74 14.273"><path fill="#FFF" d="M263.556 259.599l-5.515-9.552c-.901-1.578-3.179-1.578-4.076 0l-5.518 9.552c-.901 1.578.22 3.538 2.038 3.538h11.013c1.817 0 2.958-1.98 2.058-3.538zM256 261.018c-.479 0-.878-.398-.878-.878s.398-.878.878-.878.878.398.859.9c.022.457-.399.856-.859.856zm.8-5.677c-.039.68-.081 1.358-.12 2.038-.02.221-.02.422-.02.639a.661.661 0 0 1-.661.638.647.647 0 0 1-.661-.618c-.059-1.06-.12-2.1-.178-3.159-.02-.279-.039-.561-.062-.839 0-.46.259-.839.681-.959a.882.882 0 0 1 1.021.499c.062.139.081.279.081.44-.02.443-.062.884-.081 1.321z"/></svg>