<svg xmlns="http://www.w3.org/2000/svg" width="14.267" height="15.524" viewBox="11.716 11.724 14.267 15.524"><g fill="#FFF"><path d="M25.979 15.171l-.021-.485-.484-.051c-1.859-.19-3.458-.885-4.472-1.433-1.11-.602-1.783-1.165-1.789-1.17l-.363-.307-.363.307c-.007.005-.681.569-1.79 1.17-1.014.548-2.612 1.242-4.472 1.433l-.485.05-.02.486c-.004.087-.082 2.16.717 4.672.471 1.482 1.152 2.81 2.023 3.947a11.286 11.286 0 0 0 4.146 3.344l.243.115.241-.115a11.282 11.282 0 0 0 4.147-3.344c.871-1.137 1.552-2.465 2.023-3.947.801-2.511.722-4.585.719-4.672zM18.85 25.998a10.155 10.155 0 0 1-3.483-2.877c-.79-1.027-1.411-2.234-1.846-3.584a14.52 14.52 0 0 1-.673-3.846c.746-.111 1.5-.297 2.248-.557.732-.253 1.46-.575 2.164-.959a13.93 13.93 0 0 0 1.59-1.003c.33.243.874.614 1.589 1.003.704.384 1.433.706 2.164.959a12.65 12.65 0 0 0 2.249.557c-.022.716-.14 2.167-.662 3.811-.432 1.358-1.052 2.569-1.844 3.602a10.193 10.193 0 0 1-3.496 2.894z"/><path d="M21.917 16.927l-.785.785-2.927 2.927-1.483-1.483-.202-.202-.398.398-.397.398 2.48 2.481 4.508-4.509z"/></g></svg>